 <svg width="41" height="42" viewBox="0 0 41 42" fill="none" xmlns="http://www.w3.org/2000/svg"
                class="footer__top-right__img">
                <path
                    d="M33.1862 15.9706V16.439L33.6535 16.4695C36.3567 16.6462 38.5079 18.9381 38.5 21.7309V21.7324V24.2559C38.5 27.0659 36.3324 29.3587 33.6116 29.5274L33.1719 29.5547L33.1436 29.9944C32.8592 34.4173 30.727 36.5619 28.9626 37.608C27.6961 38.3577 26.4151 38.652 25.6003 38.7699L25.2754 38.8169L25.1894 39.1336C25.0179 39.7646 24.6659 40.1142 24.1779 40.3262C24.0199 40.3949 23.8464 40.4495 23.658 40.4924C23.8649 40.3152 24.0567 40.1046 24.2248 39.8834C24.4429 39.5964 24.6322 39.2769 24.7688 38.9616C24.9024 38.6532 25 38.3155 25 38C25 37.6845 24.9024 37.3468 24.7688 37.0384C24.6322 36.7231 24.4429 36.4036 24.2248 36.1166C24.0121 35.8367 23.7615 35.5738 23.4904 35.3741C24.2675 35.7503 24.8724 36.4383 25.1436 37.2824L25.2758 37.6938L25.702 37.6226C26.6259 37.4682 28.0984 37.0503 29.4018 35.9226C30.7186 34.7833 31.8189 32.9568 32.0417 30.0738L32.0833 29.5353H31.5432H30.0797C29.7869 29.5353 29.5344 29.2887 29.5344 28.9765V17.0118C29.5344 16.6995 29.7869 16.4529 30.0797 16.4529H31.578H32.078V15.9529V14.3559C32.078 7.13355 26.9819 1.61765 20.1577 1.61765H18.8423C12.027 1.61765 6.92193 7.13329 6.92193 14.3559V15.9529V16.4529H7.42193H8.92025C9.21303 16.4529 9.4656 16.6995 9.4656 17.0118V28.9853C9.4656 29.2976 9.21303 29.5441 8.92025 29.5441H5.70583C2.84325 29.5441 0.5 27.1799 0.5 24.2647V21.7412C0.5 18.9401 2.65937 16.6543 5.36532 16.4694L5.83124 16.4376V15.9706V14.3559C5.83124 10.6075 7.14032 7.1396 9.49754 4.57355L9.4978 4.57326C11.9102 1.94314 15.2252 0.5 18.851 0.5H20.1664C23.7922 0.5 27.1072 1.94314 29.5196 4.57326L29.5199 4.57355C31.8771 7.1396 33.1862 10.6075 33.1862 14.3559V15.9706ZM18.4612 40.7382C18.7945 40.8799 19.155 40.9922 19.4675 40.9996L19.4657 40.9999C18.5625 40.9933 17.7821 40.727 17.2348 40.2715C16.9975 40.0741 16.7982 39.8367 16.6488 39.5589C16.8639 39.7663 17.1133 39.9624 17.3702 40.137C17.7209 40.3755 18.1027 40.5857 18.4612 40.7382ZM7.89233 28.4176H8.39233V27.9176V18.0706V17.5706H7.89233H5.72325C3.44622 17.5706 1.60811 19.4417 1.60811 21.7324V24.2559C1.60811 26.5466 3.44622 28.4176 5.72325 28.4176H7.89233ZM30.6338 27.9176V28.4176H31.1338H33.3029C35.5799 28.4176 37.418 26.5466 37.418 24.2559V21.7324C37.418 19.4417 35.5799 17.5706 33.3029 17.5706H31.1338H30.6338V18.0706V27.9176Z"
                    fill="white" stroke="url(#paint0_linear_192_176)" />
                <rect x="17" y="35" width="9" height="6" rx="3" stroke="#FF0F00" stroke-width="2" />
                <defs>
                    <linearGradient id="paint0_linear_192_176" x1="33.0306" y1="2.13551" x2="21.549" y2="41.3561"
                        gradientUnits="userSpaceOnUse">
                        <stop stop-color="white" />
                        <stop offset="1" stop-color="#444343" />
                    </linearGradient>
                </defs>
            </svg>