<svg width="22" height="22" viewBox="0 0 22 22" fill="none" xmlns="http://www.w3.org/2000/svg">
<path d="M17.5141 13.4108C16.7864 13.2543 16.2107 13.5921 15.701 13.8872C15.179 14.1912 14.1864 14.9964 13.6175 14.7903C10.7045 13.591 7.96481 11.0414 6.77884 8.11674C6.56981 7.53564 7.37126 6.53674 7.67307 6.00857C7.96593 5.4973 8.29679 4.9162 8.14589 4.18307C8.00952 3.52427 6.24565 1.27984 5.62193 0.66608C5.21058 0.260664 4.78918 0.0376844 4.35659 0.00164737C2.73021 -0.0681744 0.913809 2.10193 0.59524 2.62109C-0.20286 3.7281 -0.198388 5.20112 0.608654 6.9872C2.5536 11.7846 9.90976 19.0247 14.7252 21.0428C15.6138 21.4583 16.4265 21.6667 17.1564 21.6667C17.8706 21.6667 18.5067 21.4673 19.0533 21.0721C19.4657 20.8344 21.7248 18.9279 21.6655 17.2578C21.6298 16.8321 21.4073 16.4064 21.0071 15.9942C20.398 15.3647 18.168 13.5482 17.5141 13.4108Z" fill="white"/>
</svg>
