<svg width="272" height="272" viewBox="0 0 272 272" fill="none" xmlns="http://www.w3.org/2000/svg">
<rect width="272" height="272" fill="#171717"/>
<path d="M136.439 140C136.183 139.963 135.854 139.963 135.561 140C129.122 139.78 124 134.504 124 128.018C124 121.386 129.341 116 136 116C142.622 116 148 121.386 148 128.018C147.963 134.504 142.878 139.78 136.439 140Z" stroke="#292D32" stroke-width="4.8" stroke-linecap="round" stroke-linejoin="round"/>
<path d="M136.439 140C136.183 139.963 135.854 139.963 135.561 140C129.122 139.78 124 134.504 124 128.018C124 121.386 129.341 116 136 116C142.622 116 148 121.386 148 128.018C147.963 134.504 142.878 139.78 136.439 140Z" stroke="url(#paint0_linear_104_22873)" stroke-width="4.8" stroke-linecap="round" stroke-linejoin="round"/>
<path d="M104 181C104 172.555 105.941 168.276 105.941 168.276C107.319 164.578 109.038 160.131 113.772 156.978C125.896 149.007 145.718 149.007 157.754 156.978C162.488 160.131 163.542 163.322 165.585 168.276C167.516 172.957 168 177.716 168 181" stroke="url(#paint1_linear_104_22873)" stroke-opacity="0.3" stroke-width="4.8" stroke-linecap="round" stroke-linejoin="round"/>
<path d="M136 172C158.644 172 177 153.644 177 131C177 108.356 158.644 90 136 90C113.356 90 95 108.356 95 131C95 153.644 113.356 172 136 172Z" stroke="#292D32" stroke-width="4.8" stroke-linecap="round" stroke-linejoin="round"/>
<path d="M136 172C158.644 172 177 153.644 177 131C177 108.356 158.644 90 136 90C113.356 90 95 108.356 95 131C95 153.644 113.356 172 136 172Z" stroke="url(#paint2_linear_104_22873)" stroke-width="4.8" stroke-linecap="round" stroke-linejoin="round"/>
<ellipse cx="165" cy="162" rx="10" ry="9" fill="#F2F2F2"/>
<path d="M165 148C161.696 148 158.672 149.148 156.264 151.08C153.044 153.628 151 157.576 151 162C151 164.632 151.728 167.096 153.044 169.196C155.452 173.256 159.876 176 165 176C168.528 176 171.748 174.712 174.212 172.5C175.304 171.576 176.256 170.456 176.984 169.196C178.272 167.096 179 164.632 179 162C179 154.272 172.728 148 165 148ZM172.252 160.488L164.776 167.376C164.272 167.852 163.628 168.076 162.984 168.076C162.312 168.076 161.64 167.824 161.136 167.32L157.692 163.848C156.656 162.812 156.656 161.16 157.692 160.124C158.728 159.088 160.38 159.088 161.416 160.124L163.068 161.776L168.696 156.596C169.76 155.616 171.412 155.672 172.392 156.736C173.372 157.828 173.316 159.508 172.252 160.488Z" fill="#FF1001"/>
<defs>
<linearGradient id="paint0_linear_104_22873" x1="146.043" y1="116" x2="135.628" y2="141.675" gradientUnits="userSpaceOnUse">
<stop stop-color="white"/>
<stop offset="1" stop-color="#828282"/>
</linearGradient>
<linearGradient id="paint1_linear_104_22873" x1="162.78" y1="151" x2="155.922" y2="187.07" gradientUnits="userSpaceOnUse">
<stop stop-color="white"/>
<stop offset="1" stop-color="#828282"/>
</linearGradient>
<linearGradient id="paint2_linear_104_22873" x1="170.312" y1="90" x2="134.73" y2="177.723" gradientUnits="userSpaceOnUse">
<stop stop-color="white"/>
<stop offset="1" stop-color="#828282"/>
</linearGradient>
</defs>
</svg>
