<svg width="272" height="272" viewBox="0 0 272 272" fill="none" xmlns="http://www.w3.org/2000/svg">
<rect width="272" height="272" fill="#171717"/>
<g opacity="0.25">
<path d="M163.001 99.3684C163.001 99.3684 155.397 107.896 149.019 112.033C143.618 115.537 133.904 118.654 133.904 118.654L133.904 143.082C133.904 147.2 136.543 152.609 139.757 155.087L163.001 174.316L186.244 155.087C189.458 152.609 192.097 147.2 192.097 143.082V118.654C192.097 118.654 183.051 116.487 176.982 112.033C171.496 108.007 163.001 99.3684 163.001 99.3684Z" fill="#171717" stroke="url(#paint0_linear_202_729)" stroke-width="4.8" stroke-linecap="round" stroke-linejoin="round"/>
</g>
<path d="M136.5 92C136.5 92 127.484 102.127 119.922 107.04C113.518 111.2 102 114.902 102 114.902L102 143.91C102 148.8 105.129 155.223 108.94 158.166L136.5 181L164.06 158.166C167.871 155.223 171 148.8 171 143.91V114.902C171 114.902 160.274 112.328 153.078 107.04C146.573 102.259 136.5 92 136.5 92Z" fill="#171717" stroke="url(#paint1_linear_202_729)" stroke-width="4.8" stroke-linecap="round" stroke-linejoin="round"/>
<path fill-rule="evenodd" clip-rule="evenodd" d="M81.9996 101C83.3251 101 84.3996 102.075 84.3996 103.4C84.3997 124.983 90.8647 134.892 99.9084 138.893C109.36 143.075 122.594 141.342 137.335 137.095C147.097 134.282 157.05 132.74 166 133.389V138.203C157.801 137.549 148.342 138.919 138.664 141.707C123.906 145.96 109.14 148.226 97.9663 143.283C86.3848 138.159 79.5997 125.817 79.5996 103.4C79.5996 102.075 80.6741 101 81.9996 101ZM176 140.291V135.22C176.7 135.44 177.389 135.68 178.066 135.941C181.425 137.232 184.485 139.026 187.131 141.386C187.115 143.146 186.932 145.408 186.259 147.381C183.636 144.208 180.28 141.935 176.343 140.421C176.229 140.377 176.115 140.334 176 140.291ZM191.266 157.516C192.126 160.778 192.6 164.552 192.6 168.902C192.6 170.227 193.674 171.302 195 171.302C196.325 171.302 197.4 170.227 197.4 168.902C197.4 162.696 196.505 157.36 194.813 152.837C194.713 153.033 194.609 153.22 194.5 153.4C193.737 154.655 192.309 156.342 191.266 157.516Z" fill="url(#paint2_linear_202_729)"/>
<path fill-rule="evenodd" clip-rule="evenodd" d="M84.3996 103.4C84.3996 102.075 83.3251 101 81.9996 101C80.6741 101 79.5996 102.075 79.5996 103.4C79.5997 125.817 86.3848 138.159 97.9663 143.283C108.467 147.929 122.141 146.206 136 142.452V137.474C121.796 141.442 109.074 142.948 99.9084 138.893C90.8647 134.892 84.3997 124.983 84.3996 103.4Z" fill="url(#paint3_linear_202_729)"/>
<defs>
<linearGradient id="paint0_linear_202_729" x1="187.351" y1="99.2767" x2="160.116" y2="175.55" gradientUnits="userSpaceOnUse">
<stop stop-color="white"/>
<stop offset="1" stop-color="#6D6D6D"/>
</linearGradient>
<linearGradient id="paint1_linear_202_729" x1="165.373" y1="91.8911" x2="132.994" y2="182.435" gradientUnits="userSpaceOnUse">
<stop stop-color="white"/>
<stop offset="1" stop-color="#6D6D6D"/>
</linearGradient>
<linearGradient id="paint2_linear_202_729" x1="79.9998" y1="104.4" x2="169.752" y2="88.2363" gradientUnits="userSpaceOnUse">
<stop offset="0.315217" stop-color="white"/>
<stop offset="0.920143" stop-color="#2F2F2F"/>
<stop offset="1" stop-color="#222222"/>
</linearGradient>
<linearGradient id="paint3_linear_202_729" x1="96.4998" y1="128.4" x2="123.67" y2="114.27" gradientUnits="userSpaceOnUse">
<stop stop-color="#FF0F00"/>
<stop offset="1" stop-color="#2F2F2F" stop-opacity="0"/>
</linearGradient>
</defs>
</svg>
