<svg width="272" height="272" viewBox="0 0 272 272" fill="none" xmlns="http://www.w3.org/2000/svg">
<rect width="272" height="272" fill="#171717"/>
<path opacity="0.6" d="M73.2323 126.625L72.5064 122.462C72.0775 120.002 73.7249 117.619 76.198 117.187C80.4613 116.444 81.6764 113.113 78.8855 109.773C77.2895 107.858 77.5371 104.963 79.4661 103.36L83.1326 100.307C84.7995 98.8713 87.3174 99.1147 88.7503 100.79L89.0877 101.194C91.8551 104.538 95.341 103.93 96.8369 99.8432L97.0177 99.3486C97.7989 97.2871 100.086 96.2059 102.14 96.9931L106.624 98.6242C108.981 99.4804 110.194 102.12 109.34 104.463C107.845 108.55 110.115 111.273 114.379 110.53C116.828 110.103 119.204 111.76 119.638 114.244L120.363 118.406C120.792 120.866 119.145 123.25 116.672 123.681C112.409 124.424 111.193 127.756 113.984 131.095C115.584 133.034 115.333 135.905 113.404 137.509L109.737 140.561C108.07 141.997 105.552 141.754 104.12 140.078L103.782 139.674C101.015 136.33 97.5288 136.938 96.0329 141.025L95.8521 141.52C95.0709 143.581 92.7839 144.662 90.7293 143.875L86.2462 142.244C83.8884 141.388 82.6757 138.748 83.5293 136.406C85.0252 132.318 82.7543 129.595 78.4911 130.338C76.0179 130.769 73.6612 129.084 73.2323 126.625Z" fill="#171717" stroke="url(#paint0_linear_104_22881)" stroke-width="4.8" stroke-miterlimit="10" stroke-linecap="round" stroke-linejoin="round"/>
<path opacity="0.6" d="M157.604 161.763L156.991 158.249C156.629 156.173 158.02 154.161 160.107 153.797C163.706 153.17 164.732 150.358 162.376 147.538C161.029 145.922 161.238 143.478 162.866 142.125L165.961 139.548C167.368 138.336 169.493 138.542 170.703 139.956L170.988 140.297C173.324 143.12 176.266 142.607 177.529 139.157L177.682 138.739C178.341 136.999 180.271 136.086 182.006 136.751L185.79 138.128C187.78 138.85 188.804 141.079 188.083 143.056C186.821 146.506 188.738 148.805 192.336 148.177C194.404 147.817 196.41 149.216 196.775 151.312L197.388 154.826C197.75 156.902 196.359 158.914 194.272 159.278C190.673 159.906 189.647 162.718 192.003 165.537C193.354 167.173 193.141 169.597 191.513 170.95L188.418 173.527C187.011 174.739 184.886 174.534 183.676 173.119L183.391 172.778C181.055 169.956 178.113 170.469 176.85 173.919L176.698 174.336C176.038 176.076 174.108 176.989 172.373 176.324L168.589 174.948C166.599 174.225 165.575 171.996 166.296 170.019C167.559 166.569 165.642 164.27 162.043 164.898C159.955 165.262 157.966 163.839 157.604 161.763Z" fill="#171717" stroke="url(#paint1_linear_104_22881)" stroke-width="4.8" stroke-miterlimit="10" stroke-linecap="round" stroke-linejoin="round"/>
<path d="M92 140.369V132.631C92 128.058 95.7381 124.277 100.356 124.277C108.316 124.277 111.57 118.649 107.568 111.747C105.281 107.79 106.645 102.645 110.647 100.359L118.255 96.0064C121.729 93.94 126.215 95.171 128.282 98.6444L128.766 99.4798C132.724 106.383 139.232 106.383 143.234 99.4798L143.718 98.6444C145.785 95.171 150.271 93.94 153.745 96.0064L161.353 100.359C165.355 102.645 166.719 107.79 164.432 111.747C160.43 118.649 163.684 124.277 171.644 124.277C176.218 124.277 180 128.014 180 132.631V140.369C180 144.942 176.262 148.723 171.644 148.723C163.684 148.723 160.43 154.351 164.432 161.253C166.719 165.254 165.355 170.355 161.353 172.641L153.745 176.994C150.271 179.06 145.785 177.829 143.718 174.356L143.234 173.52C139.276 166.617 132.768 166.617 128.766 173.52L128.282 174.356C126.215 177.829 121.729 179.06 118.255 176.994L110.647 172.641C106.645 170.355 105.281 165.21 107.568 161.253C111.57 154.351 108.316 148.723 100.356 148.723C95.7381 148.723 92 144.942 92 140.369Z" fill="#171717"/>
<path d="M92 140.369V132.631C92 128.058 95.7381 124.277 100.356 124.277C108.316 124.277 111.57 118.649 107.568 111.747C105.281 107.79 106.645 102.645 110.647 100.359L118.255 96.0064C121.729 93.94 126.215 95.171 128.282 98.6444L128.766 99.4798C132.724 106.383 139.232 106.383 143.234 99.4798L143.718 98.6444C145.785 95.171 150.271 93.94 153.745 96.0064L161.353 100.359C165.355 102.645 166.719 107.79 164.432 111.747C160.43 118.649 163.684 124.277 171.644 124.277C176.218 124.277 180 128.014 180 132.631V140.369C180 144.942 176.262 148.723 171.644 148.723C163.684 148.723 160.43 154.351 164.432 161.253C166.719 165.254 165.355 170.355 161.353 172.641L153.745 176.994C150.271 179.06 145.785 177.829 143.718 174.356L143.234 173.52C139.276 166.617 132.768 166.617 128.766 173.52L128.282 174.356C126.215 177.829 121.729 179.06 118.255 176.994L110.647 172.641C106.645 170.355 105.281 165.21 107.568 161.253C111.57 154.351 108.316 148.723 100.356 148.723C95.7381 148.723 92 144.942 92 140.369Z" stroke="#292D32" stroke-width="4.8" stroke-miterlimit="10" stroke-linecap="round" stroke-linejoin="round"/>
<path d="M92 140.369V132.631C92 128.058 95.7381 124.277 100.356 124.277C108.316 124.277 111.57 118.649 107.568 111.747C105.281 107.79 106.645 102.645 110.647 100.359L118.255 96.0064C121.729 93.94 126.215 95.171 128.282 98.6444L128.766 99.4798C132.724 106.383 139.232 106.383 143.234 99.4798L143.718 98.6444C145.785 95.171 150.271 93.94 153.745 96.0064L161.353 100.359C165.355 102.645 166.719 107.79 164.432 111.747C160.43 118.649 163.684 124.277 171.644 124.277C176.218 124.277 180 128.014 180 132.631V140.369C180 144.942 176.262 148.723 171.644 148.723C163.684 148.723 160.43 154.351 164.432 161.253C166.719 165.254 165.355 170.355 161.353 172.641L153.745 176.994C150.271 179.06 145.785 177.829 143.718 174.356L143.234 173.52C139.276 166.617 132.768 166.617 128.766 173.52L128.282 174.356C126.215 177.829 121.729 179.06 118.255 176.994L110.647 172.641C106.645 170.355 105.281 165.21 107.568 161.253C111.57 154.351 108.316 148.723 100.356 148.723C95.7381 148.723 92 144.942 92 140.369Z" stroke="url(#paint2_linear_104_22881)" stroke-width="4.8" stroke-miterlimit="10" stroke-linecap="round" stroke-linejoin="round"/>
<path d="M136 146C141.523 146 146 141.523 146 136C146 130.477 141.523 126 136 126C130.477 126 126 130.477 126 136C126 141.523 130.477 146 136 146Z" fill="#FF1001"/>
<defs>
<linearGradient id="paint0_linear_104_22881" x1="96.263" y1="97.4601" x2="98.6688" y2="141.074" gradientUnits="userSpaceOnUse">
<stop stop-color="#BABABA"/>
<stop offset="1" stop-color="#343434"/>
</linearGradient>
<linearGradient id="paint1_linear_104_22881" x1="177.045" y1="137.145" x2="179.075" y2="173.96" gradientUnits="userSpaceOnUse">
<stop stop-color="#BABABA"/>
<stop offset="1" stop-color="#343434"/>
</linearGradient>
<linearGradient id="paint2_linear_104_22881" x1="172.823" y1="95" x2="138.315" y2="185.199" gradientUnits="userSpaceOnUse">
<stop stop-color="white"/>
<stop offset="1" stop-color="#828282"/>
</linearGradient>
</defs>
</svg>
