<svg width="91" height="69" viewBox="0 0 91 69" fill="none" xmlns="http://www.w3.org/2000/svg">
<path d="M10.2204 58.5269C9.97249 57.6212 9.48052 55.866 6.89393 55.866C5.39062 55.866 3.11846 56.9415 3.11846 61.1738C3.11846 63.8612 4.25415 66.3516 6.89393 66.3516C8.6311 66.3516 9.84969 65.3027 10.2204 63.4647H13.3428C12.7241 66.7302 10.5951 69 6.83683 69C2.85252 69 0 66.2906 0 61.1307C0 55.884 3.01755 53.2231 6.87593 53.2231C11.3616 53.2231 13.1723 56.3189 13.3428 58.5269H10.2204Z" fill="#171717"/>
<path d="M17.1635 61.7117L20.8342 57.4967H24.4094L20.5073 61.7899L24.5142 68.6088H21.0211L18.3735 63.8361L17.1635 65.0993V68.6088H14.25V57.4967H17.1635V61.7117Z" fill="#171717"/>
<path d="M35.1737 63.0307C35.1737 67.0361 32.487 68.9 29.5124 68.9C26.5426 68.9 23.834 67.0635 23.834 63.0565C23.834 59.0464 26.5426 57.2076 29.5124 57.2076C32.487 57.2076 35.1737 59.0245 35.1737 63.0307ZM26.8296 63.0307C26.8296 64.4542 27.2614 66.4354 29.5124 66.4354C31.7643 66.4354 32.1772 64.4762 32.1772 63.0565C32.1772 61.6283 31.7643 59.6682 29.5124 59.6682C27.2614 59.6682 26.8296 61.6064 26.8296 63.0307Z" fill="#171717"/>
<path d="M46.1223 57.4957V68.6086H43.2087V59.8344H40.0911V63.261C40.0911 67.5112 38.8115 68.8519 36.7645 68.8519C36.2554 68.8519 35.4232 68.7697 34.9922 68.6086V66.4358C35.0524 66.4788 35.4231 66.5187 35.8541 66.5187C36.7293 66.5187 37.1822 66.0869 37.1822 62.7033V57.4957H46.1223Z" fill="#171717"/>
<path d="M50.5229 61.7117L54.1936 57.4967H57.7688L53.8627 61.7899L57.8736 68.6088H54.3805L51.7376 63.836L50.5229 65.0992V68.6088H47.6094V57.4967H50.5229V61.7117Z" fill="#171717"/>
<path d="M68.5323 63.0307C68.5323 67.0361 65.8503 68.9 62.8757 68.9C59.9012 68.9 57.1973 67.0635 57.1973 63.0565C57.1973 59.0464 59.9012 57.2076 62.8757 57.2076C65.8503 57.2076 68.5323 59.0245 68.5323 63.0307ZM60.1937 63.0307C60.1937 64.4542 60.6247 66.4354 62.8757 66.4354C65.1174 66.4354 65.5452 64.4762 65.5452 63.0565C65.5452 61.6283 65.1174 59.6682 62.8757 59.6682C60.6247 59.6682 60.1937 61.6064 60.1937 63.0307Z" fill="#171717"/>
<path d="M69.4766 57.4966H74.4933C76.9751 57.4966 78.7905 58.5118 78.7905 60.3671C78.7905 61.6467 77.8808 62.4695 76.7217 62.7612C77.8582 63.0326 79.1205 63.7585 79.1205 65.5755C79.1205 67.6341 77.5625 68.6102 75.0455 68.6102H69.4766V57.4966ZM72.3846 61.9955H74.2837C75.2504 61.9955 75.9348 61.6084 75.9348 60.737C75.9348 59.8305 75.2762 59.5004 74.3056 59.5004H72.3846V61.9955ZM72.3846 66.6071H74.5269C75.6032 66.6071 76.2696 66.2763 76.2696 65.1781C76.2696 64.2075 75.568 63.7585 74.4933 63.7585H72.3846V66.6071Z" fill="#171717"/>
<path d="M90.7811 63.0307C90.7811 67.0361 88.103 68.9 85.1246 68.9C82.1539 68.9 79.4414 67.0635 79.4414 63.0565C79.4414 59.0464 82.1539 57.2076 85.1246 57.2076C88.103 57.2076 90.7811 59.0245 90.7811 63.0307ZM82.4378 63.0307C82.4378 64.4542 82.8766 66.4354 85.1246 66.4354C87.3756 66.4354 87.7855 64.4762 87.7855 63.0565C87.7855 61.6283 87.3756 59.6682 85.1246 59.6682C82.8766 59.6682 82.4378 61.6064 82.4378 63.0307Z" fill="#171717"/>
<path d="M21.1774 50.7111C23.66 50.7111 29.7733 50.2762 34.3419 46.9403V49.4706H43.5596L43.569 38.3444L47.418 34.3601L55.7965 49.4706H66.8562L54.1633 27.8799L66.5261 14.2719H55.2044L43.569 27.6233V1.97486H34.3419V6.03269C31.5324 3.01591 26.9779 0.734367 19.8759 0.734367C4.50341 0.734367 1.61724 10.0866 1.61724 15.3216C1.61724 22.5151 5.48422 26.5127 12.2202 28.1458L21.7703 30.497C26.8074 31.7422 30.4092 32.6565 30.4092 36.3851C30.4092 41.358 25.1711 42.5336 20.4594 42.5336C11.8236 42.5336 10.3868 37.4989 10.3868 34.8176H0.898438C0.898438 40.7041 3.90741 50.7111 21.1774 50.7111ZM27.4613 22.3892L15.8869 19.571C13.919 19.1143 10.8436 18.3258 10.8436 14.6028C10.8436 10.3486 15.3597 8.90789 19.1532 8.90789C27.7882 8.90789 28.5766 13.9497 28.8332 16.1053H34.3419V24.9585C32.3208 23.7783 29.9352 23.0118 27.4613 22.3892Z" fill="#171717"/>
</svg>
